<svg width="82" height="76" viewBox="0 0 82 76" fill="none" xmlns="http://www.w3.org/2000/svg">
<rect x="14.6284" y="33" width="57" height="43" fill="#2274A2"/>
<path d="M46.7343 49.3156C45.0503 51.1147 29.3585 53.5884 44.6232 51.718C46.2494 51.5187 44.6832 51.9554 47.4776 51.0287C49.1615 49.2296 46.8564 45.5721 46.5193 45.4063C45.1046 44.2712 48.1799 47.4921 46.7343 49.3156Z" fill="white" fill-opacity="0.87"/>
<path d="M46.7343 49.3156C45.0503 51.1147 29.3585 53.5884 44.6232 51.718C46.2494 51.5187 44.6832 51.9554 47.4776 51.0287C49.1615 49.2296 46.8564 45.5721 46.5193 45.4063C45.1046 44.2712 48.1799 47.4921 46.7343 49.3156Z" fill="white" fill-opacity="0.87"/>
<path d="M37.6712 53.2907C39.3001 51.4653 54.9132 48.7421 39.7089 50.8553C38.0891 51.0804 39.6417 50.6189 36.876 51.5899C35.2471 53.4154 37.6626 57.0353 38.0046 57.1957C39.4534 58.308 36.2812 55.1368 37.6712 53.2907Z" fill="white" fill-opacity="0.87"/>
<path d="M37.6712 53.2907C39.3001 51.4653 54.9132 48.7421 39.7089 50.8553C38.0891 51.0804 39.6417 50.6189 36.876 51.5899C35.2471 53.4154 37.6626 57.0353 38.0046 57.1957C39.4534 58.308 36.2812 55.1368 37.6712 53.2907Z" fill="white" fill-opacity="0.87"/>
<path d="M51.4503 52.0587C51.8407 49.9032 68.3578 42.577 53.6921 47.8967C52.0995 48.4744 50.2673 49.3483 49.8769 51.5039C49.4865 53.6594 54.0117 54.3891 54.4156 54.4275C54.8196 54.4659 51.0599 54.2143 51.4503 52.0587Z" fill="white" fill-opacity="0.87"/>
<path d="M34.4169 58.59C37.2438 59.3165 43.6833 72.5536 39.5649 61.0474C39.1177 59.798 38.3207 58.3168 35.4938 57.5904C32.6668 56.8639 30.7384 59.9197 30.6023 60.198C30.4661 60.4763 31.5899 57.8636 34.4169 58.59Z" fill="white" fill-opacity="0.87"/>
<path d="M45.8097 63.2301C45.25 60.2487 48.1484 58.3849 51.4746 56.8612C75.2596 51.8858 47.3082 58.9122 47.8678 61.8936C48.4275 64.8751 58.1404 67.2357 57.1288 67.3355C56.1172 67.4352 46.3693 66.2116 45.8097 63.2301Z" fill="white" fill-opacity="0.87"/>
<path d="M25.3688 58.4245C24.5717 54.1784 27.3467 51.6575 30.5795 49.6359C54.1589 43.5653 26.5412 52.3699 27.3383 56.616C28.1353 60.8621 38.1077 64.6048 37.0961 64.7045C36.0845 64.8043 26.1658 62.6706 25.3688 58.4245Z" fill="white" fill-opacity="0.87"/>
<path d="M63.1597 50.259C62.2226 52.3242 44.1128 57.2939 59.8883 54.0458C61.6014 53.6931 63.626 53.0816 64.5632 51.0164C65.5003 48.9512 61.2415 47.6238 60.8545 47.5315C60.4675 47.4393 64.0968 48.1938 63.1597 50.259Z" fill="white" fill-opacity="0.87"/>
<path d="M59.5872 54.469C59.5872 57.2984 59.0369 59.5921 58.358 59.5921C42.0711 62.0423 57.1288 59.5259 57.1288 56.6965C57.1288 53.867 57.6791 49.3459 58.358 49.3459C59.0369 49.3459 59.5872 51.6396 59.5872 54.469Z" fill="white" fill-opacity="0.87"/>
<path d="M44.4395 44.9905C44.3312 45.3511 44.4783 45.9085 42.8195 47.2424C43.6018 45.0863 41.8413 45.2643 42.3377 44.6588C42.446 44.2982 43.2374 44.1169 43.7349 44.1954C44.2324 44.2739 44.5479 44.6299 44.4395 44.9905Z" fill="white" fill-opacity="0.87"/>
<path d="M43.9286 56.561C43.8203 56.9216 43.9673 57.479 42.3086 58.813C43.0908 56.6568 41.3303 56.8348 41.8267 56.2293C41.9351 55.8687 42.7265 55.6874 43.224 55.7659C43.7214 55.8444 44.0369 56.2004 43.9286 56.561Z" fill="white" fill-opacity="0.87"/>
<path d="M43.4181 8.27111L81.3831 35.9568L70.3703 37.9191L53.2716 35.9568L43.4181 8.27111Z" fill="#2274A2"/>
<path d="M31.826 35.9568L17.3356 38.1828L4.29418 35.9568L42.6166 9.34996L31.826 35.9568Z" fill="#2274A2"/>
<path d="M43.4048 8L57.6284 36.5001L43.4048 39.5L30.6284 36.5001L43.4048 8Z" fill="white"/>
</svg>
